<?xml version="1.0" encoding="UTF-8"?>
<!-- Generator: Adobe Illustrator 12.0.1, SVG Export Plug-In . SVG Version: 6.00 Build 51448)  -->
<!DOCTYPE svg PUBLIC "-//W3C//DTD SVG 1.1 Basic//EN" "http://www.w3.org/Graphics/SVG/1.1/DTD/svg11-basic.dtd" [
	<!ENTITY ns_svg "http://www.w3.org/2000/svg">
	<!ENTITY ns_xlink "http://www.w3.org/1999/xlink">
]>
<svg version="1.1" baseProfile="basic" id="Layer_1" xmlns="http://www.w3.org/2000/svg" xmlns:xlink="http://www.w3.org/1999/xlink" width="287.251" height="331.379" viewBox="0 0 287.251 331.379" overflow="visible" enable-background="new 0 0 287.251 331.379" xml:space="preserve">
<g>
	<polygon fill="#808080" points="123.918,118.636 164.668,142.161 205.417,118.634 164.668,95.108  "/>
	<polygon fill="#808080" points="123.251,119.304 123.251,166.356 164,189.882 164.001,189.882 164.001,142.829  "/>
	<polygon fill="#808080" points="204.75,118.637 204.75,165.688 204.749,165.689 164,189.215 164,142.162 204.749,118.635  "/>
	
		<line fill="none" stroke="#000000" stroke-width="2" stroke-linecap="round" stroke-linejoin="bevel" x1="245.501" y1="95.107" x2="245.501" y2="48.055"/>
	
		<line fill="none" stroke="#000000" stroke-width="2" stroke-linecap="round" stroke-linejoin="bevel" x1="245.501" y1="142.163" x2="245.501" y2="142.162"/>
	
		<line fill="none" stroke="#000000" stroke-width="2" stroke-linecap="round" stroke-linejoin="bevel" x1="245.501" y1="95.108" x2="245.501" y2="95.107"/>
	
		<line fill="none" stroke="#000000" stroke-width="2" stroke-linecap="round" stroke-linejoin="bevel" x1="245.501" y1="236.271" x2="245.501" y2="236.27"/>
	
		<line fill="none" stroke="#000000" stroke-width="2" stroke-linecap="round" stroke-linejoin="bevel" x1="245.501" y1="189.217" x2="245.501" y2="189.216"/>
	
		<line fill="none" stroke="#000000" stroke-width="2" stroke-linecap="round" stroke-linejoin="bevel" x1="245.501" y1="283.324" x2="245.501" y2="236.271"/>
	
		<line fill="none" stroke="#000000" stroke-width="2" stroke-linecap="round" stroke-linejoin="bevel" x1="245.501" y1="48.054" x2="245.501" y2="48.055"/>
	
		<line fill="none" stroke="#000000" stroke-width="2" stroke-linecap="round" stroke-linejoin="bevel" x1="245.501" y1="236.27" x2="245.501" y2="189.217"/>
	
		<line fill="none" stroke="#000000" stroke-width="2" stroke-linecap="round" stroke-linejoin="bevel" x1="245.501" y1="142.163" x2="245.501" y2="189.216"/>
	
		<line fill="none" stroke="#000000" stroke-width="2" stroke-linecap="round" stroke-linejoin="bevel" x1="204.751" y1="118.636" x2="204.751" y2="165.688"/>
	
		<line fill="none" stroke="#000000" stroke-width="2" stroke-linecap="round" stroke-linejoin="bevel" x1="204.751" y1="259.797" x2="204.751" y2="212.743"/>
	
		<line fill="none" stroke="#000000" stroke-width="2" stroke-linecap="round" stroke-linejoin="bevel" x1="204.751" y1="118.635" x2="204.751" y2="71.582"/>
	
		<line fill="none" stroke="#000000" stroke-width="2" stroke-linecap="round" stroke-linejoin="bevel" x1="204.751" y1="259.797" x2="204.751" y2="259.797"/>
	
		<line fill="none" stroke="#000000" stroke-width="2" stroke-linecap="round" stroke-linejoin="bevel" x1="204.751" y1="306.852" x2="204.751" y2="306.852"/>
	
		<line fill="none" stroke="#000000" stroke-width="2" stroke-linecap="round" stroke-linejoin="bevel" x1="204.751" y1="259.797" x2="204.751" y2="306.852"/>
	
		<line fill="none" stroke="#000000" stroke-width="2" stroke-linecap="round" stroke-linejoin="bevel" x1="204.751" y1="71.581" x2="204.751" y2="71.582"/>
	
		<line fill="none" stroke="#000000" stroke-width="2" stroke-linecap="round" stroke-linejoin="bevel" x1="204.751" y1="118.636" x2="204.751" y2="118.635"/>
	
		<line fill="none" stroke="#000000" stroke-width="2" stroke-linecap="round" stroke-linejoin="bevel" x1="204.751" y1="212.743" x2="204.751" y2="212.743"/>
	
		<line fill="none" stroke="#000000" stroke-width="2" stroke-linecap="round" stroke-linejoin="bevel" x1="204.751" y1="24.527" x2="204.751" y2="24.527"/>
	
		<line fill="none" stroke="#000000" stroke-width="2" stroke-linecap="round" stroke-linejoin="bevel" x1="204.751" y1="165.689" x2="204.751" y2="165.688"/>
	
		<line fill="none" stroke="#000000" stroke-width="2" stroke-linecap="round" stroke-linejoin="bevel" x1="164.001" y1="48.054" x2="164.001" y2="48.055"/>
	
		<line fill="none" stroke="#000000" stroke-width="2" stroke-linecap="round" stroke-linejoin="bevel" x1="164.001" y1="48.055" x2="164.001" y2="95.108"/>
	
		<line fill="none" stroke="#000000" stroke-width="2" stroke-linecap="round" stroke-linejoin="bevel" x1="164.001" y1="236.27" x2="164.001" y2="189.216"/>
	
		<line fill="none" stroke="#000000" stroke-width="2" stroke-linecap="round" stroke-linejoin="bevel" x1="164.001" y1="95.108" x2="164.001" y2="95.109"/>
	
		<line fill="none" stroke="#000000" stroke-width="2" stroke-linecap="round" stroke-linejoin="bevel" x1="164.001" y1="330.377" x2="164.001" y2="330.379"/>
	
		<line fill="none" stroke="#000000" stroke-width="2" stroke-linecap="round" stroke-linejoin="bevel" x1="164.001" y1="189.216" x2="164.001" y2="189.216"/>
	
		<line fill="none" stroke="#000000" stroke-width="2" stroke-linecap="round" stroke-linejoin="bevel" x1="164.001" y1="189.216" x2="164.001" y2="142.162"/>
	
		<line fill="none" stroke="#000000" stroke-width="2" stroke-linecap="round" stroke-linejoin="bevel" x1="164.001" y1="1" x2="164.001" y2="1"/>
	
		<line fill="none" stroke="#000000" stroke-width="2" stroke-linecap="round" stroke-linejoin="bevel" x1="164.001" y1="330.377" x2="164.001" y2="283.324"/>
	
		<line fill="none" stroke="#000000" stroke-width="2" stroke-linecap="round" stroke-linejoin="bevel" x1="164.001" y1="142.162" x2="164.001" y2="142.162"/>
	
		<line fill="none" stroke="#000000" stroke-width="2" stroke-linecap="round" stroke-linejoin="bevel" x1="164.001" y1="283.324" x2="164.001" y2="283.324"/>
	
		<line fill="none" stroke="#000000" stroke-width="2" stroke-linecap="round" stroke-linejoin="bevel" x1="164.001" y1="236.271" x2="164.001" y2="236.27"/>
	
		<line fill="none" stroke="#000000" stroke-width="2" stroke-linecap="round" stroke-linejoin="bevel" x1="123.251" y1="24.527" x2="123.251" y2="71.581"/>
	
		<line fill="none" stroke="#000000" stroke-width="2" stroke-linecap="round" stroke-linejoin="bevel" x1="123.251" y1="212.744" x2="123.251" y2="259.797"/>
	
		<line fill="none" stroke="#000000" stroke-width="2" stroke-linecap="round" stroke-linejoin="bevel" x1="123.251" y1="118.636" x2="123.251" y2="165.689"/>
	
		<line fill="none" stroke="#000000" stroke-width="2" stroke-linecap="round" stroke-linejoin="bevel" x1="123.251" y1="306.852" x2="123.251" y2="306.852"/>
	
		<line fill="none" stroke="#000000" stroke-width="2" stroke-linecap="round" stroke-linejoin="bevel" x1="123.251" y1="306.852" x2="123.251" y2="259.799"/>
	
		<line fill="none" stroke="#000000" stroke-width="2" stroke-linecap="round" stroke-linejoin="bevel" x1="123.251" y1="118.636" x2="123.251" y2="118.636"/>
	
		<line fill="none" stroke="#000000" stroke-width="2" stroke-linecap="round" stroke-linejoin="bevel" x1="123.251" y1="165.689" x2="123.251" y2="165.689"/>
	
		<line fill="none" stroke="#000000" stroke-width="2" stroke-linecap="round" stroke-linejoin="bevel" x1="123.251" y1="71.581" x2="123.251" y2="71.582"/>
	
		<line fill="none" stroke="#000000" stroke-width="2" stroke-linecap="round" stroke-linejoin="bevel" x1="123.251" y1="212.744" x2="123.251" y2="212.742"/>
	
		<line fill="none" stroke="#000000" stroke-width="2" stroke-linecap="round" stroke-linejoin="bevel" x1="123.251" y1="259.799" x2="123.251" y2="259.797"/>
	
		<line fill="none" stroke="#000000" stroke-width="2" stroke-linecap="round" stroke-linejoin="bevel" x1="82.501" y1="330.379" x2="82.501" y2="330.379"/>
	
		<line fill="none" stroke="#000000" stroke-width="2" stroke-linecap="round" stroke-linejoin="bevel" x1="82.501" y1="283.324" x2="82.501" y2="330.379"/>
	
		<line fill="none" stroke="#000000" stroke-width="2" stroke-linecap="round" stroke-linejoin="bevel" x1="82.501" y1="189.217" x2="82.501" y2="236.27"/>
	
		<line fill="none" stroke="#000000" stroke-width="2" stroke-linecap="round" stroke-linejoin="bevel" x1="82.501" y1="95.108" x2="82.501" y2="142.162"/>
	
		<line fill="none" stroke="#000000" stroke-width="2" stroke-linecap="round" stroke-linejoin="bevel" x1="82.501" y1="236.271" x2="82.501" y2="236.27"/>
	
		<line fill="none" stroke="#000000" stroke-width="2" stroke-linecap="round" stroke-linejoin="bevel" x1="82.501" y1="189.217" x2="82.501" y2="189.216"/>
	
		<line fill="none" stroke="#000000" stroke-width="2" stroke-linecap="round" stroke-linejoin="bevel" x1="82.501" y1="283.324" x2="82.501" y2="283.324"/>
	
		<line fill="none" stroke="#000000" stroke-width="2" stroke-linecap="round" stroke-linejoin="bevel" x1="82.501" y1="142.162" x2="82.501" y2="142.162"/>
	
		<line fill="none" stroke="#000000" stroke-width="2" stroke-linecap="round" stroke-linejoin="bevel" x1="41.751" y1="212.744" x2="41.751" y2="212.743"/>
	
		<line fill="none" stroke="#000000" stroke-width="2" stroke-linecap="round" stroke-linejoin="bevel" x1="41.751" y1="259.797" x2="41.751" y2="259.797"/>
	
		<line fill="none" stroke="#000000" stroke-width="2" stroke-linecap="round" stroke-linejoin="bevel" x1="41.751" y1="306.852" x2="41.751" y2="259.797"/>
	
		<line fill="none" stroke="#000000" stroke-width="2" stroke-linecap="round" stroke-linejoin="bevel" x1="41.751" y1="306.852" x2="41.751" y2="306.852"/>
	
		<line fill="none" stroke="#000000" stroke-width="2" stroke-linecap="round" stroke-linejoin="bevel" x1="41.751" y1="165.689" x2="41.751" y2="212.743"/>
	
		<line fill="none" stroke="#000000" stroke-width="2" stroke-linecap="round" stroke-linejoin="bevel" x1="1.001" y1="236.27" x2="1.001" y2="283.322"/>
	
		<line fill="none" stroke="#000000" stroke-width="2" stroke-linecap="round" stroke-linejoin="bevel" x1="1.001" y1="283.324" x2="1.001" y2="283.322"/>
	
		<line fill="none" stroke="#000000" stroke-width="2" stroke-linecap="round" stroke-linejoin="bevel" x1="286.251" y1="165.689" x2="286.251" y2="118.635"/>
	
		<line fill="none" stroke="#000000" stroke-width="2" stroke-linecap="round" stroke-linejoin="bevel" x1="286.251" y1="259.797" x2="286.251" y2="212.744"/>
	
		<line fill="none" stroke="#000000" stroke-width="2" stroke-linecap="round" stroke-linejoin="bevel" x1="286.251" y1="165.689" x2="286.251" y2="212.744"/>
	
		<line fill="none" stroke="#000000" stroke-width="2" stroke-linecap="round" stroke-linejoin="bevel" x1="123.251" y1="306.852" x2="123.251" y2="306.852"/>
	
		<line fill="none" stroke="#000000" stroke-width="2" stroke-linecap="round" stroke-linejoin="bevel" x1="123.251" y1="306.852" x2="82.501" y2="330.379"/>
	
		<line fill="none" stroke="#000000" stroke-width="2" stroke-linecap="round" stroke-linejoin="bevel" x1="82.501" y1="330.379" x2="82.501" y2="330.379"/>
	
		<line fill="none" stroke="#000000" stroke-width="2" stroke-linecap="round" stroke-linejoin="bevel" x1="164.001" y1="283.324" x2="164.001" y2="283.324"/>
	
		<line fill="none" stroke="#000000" stroke-width="2" stroke-linecap="round" stroke-linejoin="bevel" x1="204.751" y1="259.797" x2="204.751" y2="259.797"/>
	
		<line fill="none" stroke="#000000" stroke-width="2" stroke-linecap="round" stroke-linejoin="bevel" x1="164.001" y1="283.324" x2="204.751" y2="259.797"/>
	
		<line fill="none" stroke="#000000" stroke-width="2" stroke-linecap="round" stroke-linejoin="bevel" x1="286.251" y1="212.744" x2="245.501" y2="236.27"/>
	
		<line fill="none" stroke="#000000" stroke-width="2" stroke-linecap="round" stroke-linejoin="bevel" x1="204.751" y1="259.797" x2="245.501" y2="236.271"/>
	
		<line fill="none" stroke="#000000" stroke-width="2" stroke-linecap="round" stroke-linejoin="bevel" x1="245.501" y1="236.271" x2="245.501" y2="236.27"/>
	
		<line fill="none" stroke="#000000" stroke-width="2" stroke-linecap="round" stroke-linejoin="bevel" x1="245.501" y1="189.216" x2="286.25" y2="165.689"/>
	
		<line fill="none" stroke="#000000" stroke-width="2" stroke-linecap="round" stroke-linejoin="bevel" x1="204.751" y1="212.743" x2="245.501" y2="189.217"/>
	
		<line fill="none" stroke="#000000" stroke-width="2" stroke-linecap="round" stroke-linejoin="bevel" x1="82.501" y1="283.324" x2="123.25" y2="259.797"/>
	
		<line fill="none" stroke="#000000" stroke-width="2" stroke-linecap="round" stroke-linejoin="bevel" x1="204.751" y1="212.743" x2="204.751" y2="212.743"/>
	
		<line fill="none" stroke="#000000" stroke-width="2" stroke-linecap="round" stroke-linejoin="bevel" x1="123.251" y1="259.797" x2="164" y2="236.27"/>
	
		<line fill="none" stroke="#000000" stroke-width="2" stroke-linecap="round" stroke-linejoin="bevel" x1="123.25" y1="259.797" x2="123.251" y2="259.797"/>
	
		<line fill="none" stroke="#000000" stroke-width="2" stroke-linecap="round" stroke-linejoin="bevel" x1="245.501" y1="189.216" x2="245.501" y2="189.217"/>
	
		<line fill="none" stroke="#000000" stroke-width="2" stroke-linecap="round" stroke-linejoin="bevel" x1="41.751" y1="306.852" x2="41.75" y2="306.852"/>
	
		<line fill="none" stroke="#000000" stroke-width="2" stroke-linecap="round" stroke-linejoin="bevel" x1="164.001" y1="236.27" x2="164" y2="236.27"/>
	
		<line fill="none" stroke="#000000" stroke-width="2" stroke-linecap="round" stroke-linejoin="bevel" x1="82.501" y1="283.324" x2="82.501" y2="283.324"/>
	
		<line fill="none" stroke="#000000" stroke-width="2" stroke-linecap="round" stroke-linejoin="bevel" x1="123.251" y1="212.742" x2="123.25" y2="212.743"/>
	
		<line fill="none" stroke="#000000" stroke-width="2" stroke-linecap="round" stroke-linejoin="bevel" x1="1" y1="283.324" x2="1.001" y2="283.322"/>
	
		<line fill="none" stroke="#000000" stroke-width="2" stroke-linecap="round" stroke-linejoin="bevel" x1="164.001" y1="189.216" x2="164" y2="189.216"/>
	
		<line fill="none" stroke="#000000" stroke-width="2" stroke-linecap="round" stroke-linejoin="bevel" x1="41.751" y1="259.797" x2="82.499" y2="236.27"/>
	
		<line fill="none" stroke="#000000" stroke-width="2" stroke-linecap="round" stroke-linejoin="bevel" x1="82.499" y1="236.27" x2="82.501" y2="236.27"/>
	
		<line fill="none" stroke="#000000" stroke-width="2" stroke-linecap="round" stroke-linejoin="bevel" x1="204.751" y1="165.688" x2="204.75" y2="165.689"/>
	
		<line fill="none" stroke="#000000" stroke-width="2" stroke-linecap="round" stroke-linejoin="bevel" x1="41.751" y1="259.797" x2="41.75" y2="259.797"/>
	
		<line fill="none" stroke="#000000" stroke-width="2" stroke-linecap="round" stroke-linejoin="bevel" x1="123.251" y1="212.742" x2="164" y2="189.216"/>
	
		<line fill="none" stroke="#000000" stroke-width="2" stroke-linecap="round" stroke-linejoin="bevel" x1="245.501" y1="142.162" x2="245.5" y2="142.162"/>
	
		<line fill="none" stroke="#000000" stroke-width="2" stroke-linecap="round" stroke-linejoin="bevel" x1="164.001" y1="189.216" x2="204.75" y2="165.689"/>
	
		<line fill="none" stroke="#000000" stroke-width="2" stroke-linecap="round" stroke-linejoin="bevel" x1="245.501" y1="142.162" x2="286.251" y2="118.635"/>
	
		<line fill="none" stroke="#000000" stroke-width="2" stroke-linecap="round" stroke-linejoin="bevel" x1="41.751" y1="212.743" x2="41.75" y2="212.743"/>
	
		<line fill="none" stroke="#000000" stroke-width="2" stroke-linecap="round" stroke-linejoin="bevel" x1="41.75" y1="212.743" x2="1.001" y2="236.27"/>
	
		<line fill="none" stroke="#000000" stroke-width="2" stroke-linecap="round" stroke-linejoin="bevel" x1="82.501" y1="189.216" x2="123.251" y2="165.689"/>
	
		<line fill="none" stroke="#000000" stroke-width="2" stroke-linecap="round" stroke-linejoin="bevel" x1="123.251" y1="165.689" x2="123.251" y2="165.689"/>
	
		<line fill="none" stroke="#000000" stroke-width="2" stroke-linecap="round" stroke-linejoin="bevel" x1="82.501" y1="189.216" x2="82.5" y2="189.217"/>
	
		<line fill="none" stroke="#000000" stroke-width="2" stroke-linecap="round" stroke-linejoin="bevel" x1="245.501" y1="95.107" x2="245.501" y2="95.107"/>
	
		<line fill="none" stroke="#000000" stroke-width="2" stroke-linecap="round" stroke-linejoin="bevel" x1="204.751" y1="118.635" x2="204.75" y2="118.635"/>
	
		<line fill="none" stroke="#000000" stroke-width="2" stroke-linecap="round" stroke-linejoin="bevel" x1="245.501" y1="95.107" x2="204.751" y2="118.635"/>
	
		<line fill="none" stroke="#000000" stroke-width="2" stroke-linecap="round" stroke-linejoin="bevel" x1="164.001" y1="142.162" x2="204.75" y2="118.635"/>
	
		<line fill="none" stroke="#000000" stroke-width="2" stroke-linecap="round" stroke-linejoin="bevel" x1="164.001" y1="142.162" x2="164.001" y2="142.162"/>
	
		<line fill="none" stroke="#000000" stroke-width="2" stroke-linecap="round" stroke-linejoin="bevel" x1="164.001" y1="95.108" x2="164.001" y2="95.108"/>
	
		<line fill="none" stroke="#000000" stroke-width="2" stroke-linecap="round" stroke-linejoin="bevel" x1="41.751" y1="165.689" x2="82.501" y2="142.162"/>
	
		<line fill="none" stroke="#000000" stroke-width="2" stroke-linecap="round" stroke-linejoin="bevel" x1="204.751" y1="71.581" x2="204.751" y2="71.582"/>
	
		<line fill="none" stroke="#000000" stroke-width="2" stroke-linecap="round" stroke-linejoin="bevel" x1="164.001" y1="95.108" x2="123.251" y2="118.636"/>
	
		<line fill="none" stroke="#000000" stroke-width="2" stroke-linecap="round" stroke-linejoin="bevel" x1="82.501" y1="142.162" x2="82.501" y2="142.162"/>
	
		<line fill="none" stroke="#000000" stroke-width="2" stroke-linecap="round" stroke-linejoin="bevel" x1="245.502" y1="48.055" x2="245.501" y2="48.055"/>
	
		<line fill="none" stroke="#000000" stroke-width="2" stroke-linecap="round" stroke-linejoin="bevel" x1="245.501" y1="48.055" x2="204.751" y2="71.581"/>
	
		<line fill="none" stroke="#000000" stroke-width="2" stroke-linecap="round" stroke-linejoin="bevel" x1="123.251" y1="118.636" x2="123.251" y2="118.636"/>
	
		<line fill="none" stroke="#000000" stroke-width="2" stroke-linecap="round" stroke-linejoin="bevel" x1="123.25" y1="71.581" x2="82.501" y2="95.107"/>
	
		<line fill="none" stroke="#000000" stroke-width="2" stroke-linecap="round" stroke-linejoin="bevel" x1="164.001" y1="48.054" x2="164.001" y2="48.055"/>
	
		<line fill="none" stroke="#000000" stroke-width="2" stroke-linecap="round" stroke-linejoin="bevel" x1="204.751" y1="24.527" x2="164.001" y2="48.054"/>
	
		<line fill="none" stroke="#000000" stroke-width="2" stroke-linecap="round" stroke-linejoin="bevel" x1="123.251" y1="71.581" x2="123.25" y2="71.581"/>
	
		<line fill="none" stroke="#000000" stroke-width="2" stroke-linecap="round" stroke-linejoin="bevel" x1="204.751" y1="24.527" x2="204.751" y2="24.527"/>
	
		<line fill="none" stroke="#000000" stroke-width="2" stroke-linecap="round" stroke-linejoin="bevel" x1="123.251" y1="24.526" x2="164.001" y2="1"/>
	
		<line fill="none" stroke="#000000" stroke-width="2" stroke-linecap="round" stroke-linejoin="bevel" x1="164.001" y1="1" x2="164.001" y2="1"/>
	
		<line fill="none" stroke="#000000" stroke-width="2" stroke-linecap="round" stroke-linejoin="bevel" x1="164.001" y1="330.379" x2="204.75" y2="306.852"/>
	
		<line fill="none" stroke="#000000" stroke-width="2" stroke-linecap="round" stroke-linejoin="bevel" x1="164.001" y1="330.379" x2="164.001" y2="330.379"/>
	
		<line fill="none" stroke="#000000" stroke-width="2" stroke-linecap="round" stroke-linejoin="bevel" x1="245.501" y1="283.324" x2="286.251" y2="259.797"/>
	
		<line fill="none" stroke="#000000" stroke-width="2" stroke-linecap="round" stroke-linejoin="bevel" x1="245.501" y1="283.324" x2="204.751" y2="306.852"/>
	
		<line fill="none" stroke="#000000" stroke-width="2" stroke-linecap="round" stroke-linejoin="bevel" x1="204.751" y1="306.852" x2="204.75" y2="306.852"/>
	
		<line fill="none" stroke="#000000" stroke-width="2" stroke-linecap="round" stroke-linejoin="bevel" x1="1.001" y1="283.324" x2="41.75" y2="306.852"/>
	
		<line fill="none" stroke="#000000" stroke-width="2" stroke-linecap="round" stroke-linejoin="bevel" x1="1" y1="283.324" x2="1.001" y2="283.324"/>
	
		<line fill="none" stroke="#000000" stroke-width="2" stroke-linecap="round" stroke-linejoin="bevel" x1="41.751" y1="306.852" x2="41.75" y2="306.852"/>
	
		<line fill="none" stroke="#000000" stroke-width="2" stroke-linecap="round" stroke-linejoin="bevel" x1="82.501" y1="330.379" x2="41.751" y2="306.852"/>
	
		<line fill="none" stroke="#000000" stroke-width="2" stroke-linecap="round" stroke-linejoin="bevel" x1="82.501" y1="330.379" x2="82.501" y2="330.379"/>
	
		<line fill="none" stroke="#000000" stroke-width="2" stroke-linecap="round" stroke-linejoin="bevel" x1="204.751" y1="71.581" x2="164.001" y2="48.055"/>
	
		<line fill="none" stroke="#000000" stroke-width="2" stroke-linecap="round" stroke-linejoin="bevel" x1="204.751" y1="71.581" x2="204.751" y2="71.581"/>
	
		<line fill="none" stroke="#000000" stroke-width="2" stroke-linecap="round" stroke-linejoin="bevel" x1="286.251" y1="118.635" x2="245.501" y2="95.108"/>
	
		<line fill="none" stroke="#000000" stroke-width="2" stroke-linecap="round" stroke-linejoin="bevel" x1="164.001" y1="48.055" x2="164.001" y2="48.055"/>
	
		<line fill="none" stroke="#000000" stroke-width="2" stroke-linecap="round" stroke-linejoin="bevel" x1="164.001" y1="48.055" x2="123.251" y2="24.527"/>
	
		<line fill="none" stroke="#000000" stroke-width="2" stroke-linecap="round" stroke-linejoin="bevel" x1="245.501" y1="95.108" x2="245.501" y2="95.107"/>
	
		<line fill="none" stroke="#000000" stroke-width="2" stroke-linecap="round" stroke-linejoin="bevel" x1="123.25" y1="71.581" x2="123.251" y2="71.582"/>
	
		<line fill="none" stroke="#000000" stroke-width="2" stroke-linecap="round" stroke-linejoin="bevel" x1="164.001" y1="95.108" x2="164.001" y2="95.109"/>
	
		<line fill="none" stroke="#000000" stroke-width="2" stroke-linecap="round" stroke-linejoin="bevel" x1="164.001" y1="95.108" x2="123.251" y2="71.582"/>
	
		<line fill="none" stroke="#000000" stroke-width="2" stroke-linecap="round" stroke-linejoin="bevel" x1="245.5" y1="142.162" x2="204.751" y2="118.636"/>
	
		<line fill="none" stroke="#000000" stroke-width="2" stroke-linecap="round" stroke-linejoin="bevel" x1="245.501" y1="142.163" x2="245.5" y2="142.162"/>
	
		<line fill="none" stroke="#000000" stroke-width="2" stroke-linecap="round" stroke-linejoin="bevel" x1="204.751" y1="118.636" x2="204.75" y2="118.635"/>
	
		<line fill="none" stroke="#000000" stroke-width="2" stroke-linecap="round" stroke-linejoin="bevel" x1="204.75" y1="118.635" x2="164.001" y2="95.109"/>
	
		<line fill="none" stroke="#000000" stroke-width="2" stroke-linecap="round" stroke-linejoin="bevel" x1="164.001" y1="142.162" x2="164.001" y2="142.162"/>
	
		<line fill="none" stroke="#000000" stroke-width="2" stroke-linecap="round" stroke-linejoin="bevel" x1="164.001" y1="142.162" x2="123.251" y2="118.636"/>
	
		<line fill="none" stroke="#000000" stroke-width="2" stroke-linecap="round" stroke-linejoin="bevel" x1="123.251" y1="118.636" x2="123.251" y2="118.636"/>
	
		<line fill="none" stroke="#000000" stroke-width="2" stroke-linecap="round" stroke-linejoin="bevel" x1="245.501" y1="189.217" x2="204.751" y2="165.689"/>
	
		<line fill="none" stroke="#000000" stroke-width="2" stroke-linecap="round" stroke-linejoin="bevel" x1="123.251" y1="118.636" x2="82.501" y2="95.108"/>
	
		<line fill="none" stroke="#000000" stroke-width="2" stroke-linecap="round" stroke-linejoin="bevel" x1="204.75" y1="165.689" x2="204.751" y2="165.689"/>
	
		<line fill="none" stroke="#000000" stroke-width="2" stroke-linecap="round" stroke-linejoin="bevel" x1="245.501" y1="189.217" x2="245.501" y2="189.217"/>
	
		<line fill="none" stroke="#000000" stroke-width="2" stroke-linecap="round" stroke-linejoin="bevel" x1="245.501" y1="236.27" x2="245.501" y2="236.27"/>
	<path fill="none" stroke="#000000" stroke-width="2" stroke-linecap="round" stroke-linejoin="bevel" d="M82.501,142.162"/>
	
		<line fill="none" stroke="#000000" stroke-width="2" stroke-linecap="round" stroke-linejoin="bevel" x1="82.501" y1="142.162" x2="82.501" y2="142.162"/>
	
		<line fill="none" stroke="#000000" stroke-width="2" stroke-linecap="round" stroke-linejoin="bevel" x1="123.251" y1="165.689" x2="123.251" y2="165.689"/>
	
		<line fill="none" stroke="#000000" stroke-width="2" stroke-linecap="round" stroke-linejoin="bevel" x1="204.751" y1="212.743" x2="204.751" y2="212.743"/>
	
		<line fill="none" stroke="#000000" stroke-width="2" stroke-linecap="round" stroke-linejoin="bevel" x1="82.501" y1="142.162" x2="123.251" y2="165.689"/>
	
		<line fill="none" stroke="#000000" stroke-width="2" stroke-linecap="round" stroke-linejoin="bevel" x1="164" y1="189.216" x2="123.251" y2="165.689"/>
	
		<line fill="none" stroke="#000000" stroke-width="2" stroke-linecap="round" stroke-linejoin="bevel" x1="204.751" y1="212.743" x2="164.001" y2="189.216"/>
	
		<line fill="none" stroke="#000000" stroke-width="2" stroke-linecap="round" stroke-linejoin="bevel" x1="164" y1="189.216" x2="164.001" y2="189.216"/>
	
		<line fill="none" stroke="#000000" stroke-width="2" stroke-linecap="round" stroke-linejoin="bevel" x1="123.25" y1="212.743" x2="123.251" y2="212.744"/>
	
		<line fill="none" stroke="#000000" stroke-width="2" stroke-linecap="round" stroke-linejoin="bevel" x1="82.5" y1="189.217" x2="82.501" y2="189.217"/>
	
		<line fill="none" stroke="#000000" stroke-width="2" stroke-linecap="round" stroke-linejoin="bevel" x1="41.751" y1="165.689" x2="82.5" y2="189.217"/>
	
		<line fill="none" stroke="#000000" stroke-width="2" stroke-linecap="round" stroke-linejoin="bevel" x1="164.001" y1="236.271" x2="164" y2="236.27"/>
	
		<line fill="none" stroke="#000000" stroke-width="2" stroke-linecap="round" stroke-linejoin="bevel" x1="204.751" y1="259.797" x2="204.751" y2="259.797"/>
	
		<line fill="none" stroke="#000000" stroke-width="2" stroke-linecap="round" stroke-linejoin="bevel" x1="123.25" y1="212.743" x2="82.501" y2="189.217"/>
	
		<line fill="none" stroke="#000000" stroke-width="2" stroke-linecap="round" stroke-linejoin="bevel" x1="204.751" y1="259.797" x2="164.001" y2="236.271"/>
	
		<line fill="none" stroke="#000000" stroke-width="2" stroke-linecap="round" stroke-linejoin="bevel" x1="204.75" y1="306.852" x2="204.751" y2="306.852"/>
	
		<line fill="none" stroke="#000000" stroke-width="2" stroke-linecap="round" stroke-linejoin="bevel" x1="82.499" y1="236.27" x2="82.501" y2="236.271"/>
	
		<line fill="none" stroke="#000000" stroke-width="2" stroke-linecap="round" stroke-linejoin="bevel" x1="123.25" y1="259.797" x2="123.251" y2="259.799"/>
	
		<line fill="none" stroke="#000000" stroke-width="2" stroke-linecap="round" stroke-linejoin="bevel" x1="82.499" y1="236.27" x2="41.751" y2="212.744"/>
	
		<line fill="none" stroke="#000000" stroke-width="2" stroke-linecap="round" stroke-linejoin="bevel" x1="123.251" y1="259.799" x2="164.001" y2="283.324"/>
	
		<line fill="none" stroke="#000000" stroke-width="2" stroke-linecap="round" stroke-linejoin="bevel" x1="123.25" y1="259.797" x2="82.501" y2="236.271"/>
	
		<line fill="none" stroke="#000000" stroke-width="2" stroke-linecap="round" stroke-linejoin="bevel" x1="41.75" y1="212.743" x2="41.751" y2="212.744"/>
	
		<line fill="none" stroke="#000000" stroke-width="2" stroke-linecap="round" stroke-linejoin="bevel" x1="164.001" y1="283.324" x2="164.001" y2="283.324"/>
	
		<line fill="none" stroke="#000000" stroke-width="2" stroke-linecap="round" stroke-linejoin="bevel" x1="82.501" y1="283.324" x2="41.751" y2="259.797"/>
	
		<line fill="none" stroke="#000000" stroke-width="2" stroke-linecap="round" stroke-linejoin="bevel" x1="41.75" y1="259.797" x2="41.751" y2="259.797"/>
	
		<line fill="none" stroke="#000000" stroke-width="2" stroke-linecap="round" stroke-linejoin="bevel" x1="123.251" y1="306.852" x2="123.251" y2="306.852"/>
	
		<line fill="none" stroke="#000000" stroke-width="2" stroke-linecap="round" stroke-linejoin="bevel" x1="41.75" y1="259.797" x2="1.001" y2="236.27"/>
	
		<line fill="none" stroke="#000000" stroke-width="2" stroke-linecap="round" stroke-linejoin="bevel" x1="164.001" y1="330.379" x2="164.001" y2="330.377"/>
	
		<line fill="none" stroke="#000000" stroke-width="2" stroke-linecap="round" stroke-linejoin="bevel" x1="82.501" y1="283.324" x2="82.501" y2="283.324"/>
	
		<line fill="none" stroke="#000000" stroke-width="2" stroke-linecap="round" stroke-linejoin="bevel" x1="123.251" y1="306.852" x2="164.001" y2="330.377"/>
	
		<line fill="none" stroke="#000000" stroke-width="2" stroke-linecap="round" stroke-linejoin="bevel" x1="245.502" y1="48.055" x2="245.501" y2="48.054"/>
	
		<line fill="none" stroke="#000000" stroke-width="2" stroke-linecap="round" stroke-linejoin="bevel" x1="204.751" y1="24.527" x2="204.751" y2="24.527"/>
	
		<line fill="none" stroke="#000000" stroke-width="2" stroke-linecap="round" stroke-linejoin="bevel" x1="164.001" y1="1" x2="164.001" y2="1"/>
	
		<line fill="none" stroke="#000000" stroke-width="2" stroke-linecap="round" stroke-linejoin="bevel" x1="204.751" y1="24.527" x2="245.501" y2="48.054"/>
	
		<line fill="none" stroke="#000000" stroke-width="2" stroke-linecap="round" stroke-linejoin="bevel" x1="204.751" y1="24.527" x2="164.001" y2="1"/>
</g>
</svg>