DBRep_DrawableShape

CASCADE Topology V1, (c) Matra-Datavision
Locations 0
Curve2ds 4
1 9 0.5 -1 0 
8 0 18
1 9 -0.5 -1 -0 
1 2 -0.5 0 1 
8 0 1
1 -9 -0.5 -0 1 
Curves 10
1 0 0 0 1 0 0 
1 18 0 0 0 1 0 
1 18 1 0 -1 0 0 
1 0 1 0 0 -1 0 
1 18 1 0 0 1 0 
1 18 2 0 -1 0 0 
1 0 1 0 0 1 0 
1 -4 1 0 1 0 0 
1 0 2 0 -1 0 0 
1 -4 2 0 0 -1 0 
Polygon3D 8
2 1
0.0880000008
0 0 0 18 0 0 
0 18 
2 1
0.0080000008
18 0 0 18 1 0 
0 1 
2 1
0.0880000008
0 1 0 0 0 0 
0 1 
2 1
0.0080000008
18 1 0 18 2 0 
0 1 
2 1
0.0880000008
18 2 0 0 2 0 
0 18 
2 1
0.0880000008
-4 1 0 0 1 0 
0 4 
2 1
0.0880000008
0 2 0 -4 2 0 
0 4 
2 1
0.0040000008
-4 2 0 -4 1 0 
0 1 
PolygonOnTriangulations 14
2 1 2 
p 0.0720000008 1 0 18 
2 1 2 
p 0.0880000008 1 0 18 
2 2 3 
p 0.0880000008 1 0 1 
2 3 4 
p 0.0880000008 1 0 18 
2 1 2 
p 0.0880000008 1 0 18 
2 4 1 
p 0.0880000008 1 0 1 
2 1 3 
p 0.0880000008 1 0 1 
2 3 4 
p 0.0880000008 1 0 18 
2 2 4 
p 0.0880000008 1 0 1 
2 2 3 
p 0.0880000008 1 0 1 
2 1 2 
p 0.0880000008 1 0 4 
2 3 4 
p 0.0880000008 1 0 4 
2 4 1 
p 0.0160000008 1 0 1 
2 4 1 
p 0.0880000008 1 0 1 
Surfaces 3
1 9 0.5 0 0 0 1 1 0 -0 -0 1 0 
1 9 1.5 0 0 0 1 1 0 -0 -0 1 0 
1 -2 1.5 0 0 0 1 1 0 -0 -0 1 0 
Triangulations 5
4 2 1 0.0880000008
0 0 0 18 0 0 18 1 0 0 1 0 -9 -0.5 9 -0.5 9 0.5 -9 0.5 3 1 2 3 4 1 
4 2 1 0.0720000008
0 0 0 18 0 0 18 1 0 0 1 0 -9 -0.5 9 -0.5 9 0.5 -9 0.5 3 1 2 3 4 1 
4 2 1 0.0880000008
18 1 0 0 1 0 18 2 0 0 2 0 9 -0.5 -9 -0.5 9 0.5 -9 0.5 3 2 1 3 4 2 
4 2 1 0.0880000008
-4 1 0 0 1 0 0 2 0 -4 2 0 -2 -0.5 2 -0.5 2 0.5 -2 0.5 3 1 2 3 4 1 
4 2 1 0.0160000008
-4 1 0 0 1 0 0 2 0 -4 2 0 -2 -0.5 2 -0.5 2 0.5 -2 0.5 3 1 2 3 4 1 

TShapes 25
Ve
1e-07
0 0 0
0 0

0101101
*
Ve
1e-07
18 0 0
0 0

0101101
*
Ed
 1e-07 1 1 0
1  1 0 0 18
6  1 2 0
6  2 1 0
5  1 0
0

0101000
+25 0 -24 0 *
Ve
1e-07
18 1 0
0 0

0101101
*
Ed
 1e-07 1 1 0
1  2 0 0 1
6  3 1 0
5  2 0
0

0101000
+24 0 -22 0 *
Ve
1e-07
0 1 0
0 0

0101101
*
Ed
 1e-07 1 1 0
1  3 0 0 18
2  1 1 0 0 18
2  2 2 0 0 18
4 CN 1 0 2 0
6  4 1 0
6  5 3 0
0

0101000
+22 0 -20 0 *
Ed
 1e-07 1 1 0
1  4 0 0 1
6  6 1 0
5  3 0
0

0101000
+20 0 -25 0 *
Wi

0101100
+23 0 +21 0 +19 0 +18 0 *
Fa
0  1e-07 1 0
2  1
0101000
+17 0 *
Ve
1e-07
18 2 0
0 0

0101101
*
Ed
 1e-07 1 1 0
1  5 0 0 1
6  7 3 0
5  4 0
0

0101000
+22 0 -15 0 *
Ve
1e-07
0 2 0
0 0

0101101
*
Ed
 1e-07 1 1 0
1  6 0 0 18
6  8 3 0
5  5 0
0

0101000
+15 0 -13 0 *
Ed
 1e-07 1 1 0
1  7 0 0 1
2  3 3 0 0 1
2  4 2 0 0 1
4 CN 2 0 3 0
6  9 3 0
6  10 4 0
0

0101000
+20 0 -13 0 *
Wi

0101100
-19 0 +14 0 +12 0 -11 0 *
Fa
0  1e-07 2 0
2  3
0101000
+10 0 *
Ve
1e-07
-4 1 0
0 0

0101101
*
Ed
 1e-07 1 1 0
1  8 0 0 4
6  11 4 0
5  6 0
0

0101000
+8 0 -20 0 *
Ve
1e-07
-4 2 0
0 0

0101101
*
Ed
 1e-07 1 1 0
1  9 0 0 4
6  12 4 0
5  7 0
0

0101000
+13 0 -6 0 *
Ed
 1e-07 1 1 0
1  10 0 0 1
6  13 5 0
6  14 4 0
5  8 0
0

0101000
+6 0 -8 0 *
Wi

0101100
+7 0 +11 0 +5 0 +4 0 *
Fa
0  1e-07 3 0
2  4
0101000
+3 0 *
Sh

0101000
+16 0 +9 0 +2 0 *

+1 0 